<svg width="224" height="178" viewBox="0 0 224 178" fill="none" xmlns="http://www.w3.org/2000/svg">
<path d="M21.1084 177L18.6988 169.964H8.19277L5.73494 177H0L10.0241 149.482H16.8193L26.8434 177H21.1084ZM13.3976 153.723L13.3012 154.157C13.1727 154.639 13.012 155.185 12.8193 155.795C12.6586 156.373 11.5502 159.651 9.49398 165.627H17.3976L14.6506 157.723L13.8313 155.072L13.3976 153.723Z" fill="url(#paint0_linear_365_356)"/>
<path d="M45.5732 172.855C49.0431 172.855 51.4688 171.104 52.8503 167.602L57.8624 169.53C56.77 172.197 55.1796 174.173 53.0913 175.458C51.0029 176.743 48.4969 177.386 45.5732 177.386C41.1395 177.386 37.7178 176.133 35.3082 173.627C32.8985 171.12 31.6937 167.618 31.6937 163.12C31.6937 158.59 32.8503 155.12 35.1636 152.711C37.509 150.269 40.8985 149.048 45.3322 149.048C48.5772 149.048 51.2118 149.707 53.2359 151.024C55.26 152.309 56.6736 154.205 57.4768 156.711L52.4166 158.108C51.9989 156.727 51.1475 155.635 49.8624 154.831C48.6094 153.996 47.1314 153.578 45.4286 153.578C42.8262 153.578 40.8503 154.398 39.5009 156.036C38.1515 157.643 37.4768 160.004 37.4768 163.12C37.4768 166.269 38.1676 168.679 39.5491 170.349C40.9628 172.02 42.9708 172.855 45.5732 172.855Z" fill="url(#paint1_linear_365_356)"/>
<path d="M84.0139 166.398C84.0139 169.835 83.05 172.534 81.1223 174.494C79.2267 176.422 76.6083 177.386 73.2669 177.386C69.9577 177.386 67.3553 176.422 65.4597 174.494C63.5962 172.534 62.6645 169.835 62.6645 166.398C62.6645 162.992 63.5962 160.325 65.4597 158.398C67.3553 156.438 69.9898 155.458 73.3633 155.458C76.801 155.458 79.4356 156.406 81.2669 158.301C83.0982 160.165 84.0139 162.863 84.0139 166.398ZM78.2308 166.398C78.2308 163.892 77.8131 162.076 76.9778 160.952C76.1745 159.827 75.0018 159.265 73.4597 159.265C70.1183 159.265 68.4476 161.643 68.4476 166.398C68.4476 168.743 68.8492 170.542 69.6525 171.795C70.4878 173.016 71.6605 173.627 73.1705 173.627C76.544 173.627 78.2308 171.217 78.2308 166.398Z" fill="url(#paint2_linear_365_356)"/>
<path d="M102.926 177V165.145C102.926 161.418 101.866 159.554 99.7455 159.554C98.6532 159.554 97.7535 160.133 97.0467 161.289C96.3399 162.414 95.9865 163.876 95.9865 165.675V177H90.4925V160.614C90.4925 159.49 90.4764 158.558 90.4443 157.819C90.4122 157.08 90.3801 156.422 90.3479 155.843H95.5527C95.5849 156.1 95.6331 156.775 95.6973 157.867C95.7937 158.928 95.8419 159.667 95.8419 160.084H95.8901C96.5648 158.478 97.4001 157.305 98.3961 156.566C99.4242 155.827 100.645 155.458 102.059 155.458C105.304 155.458 107.264 157 107.938 160.084H108.035C108.742 158.446 109.593 157.273 110.589 156.566C111.617 155.827 112.902 155.458 114.444 155.458C116.501 155.458 118.075 156.165 119.167 157.578C120.26 158.96 120.806 160.968 120.806 163.602V177H115.312V165.145C115.312 161.418 114.252 159.554 112.131 159.554C111.071 159.554 110.187 160.084 109.48 161.145C108.806 162.173 108.436 163.602 108.372 165.434V177H102.926Z" fill="url(#paint3_linear_365_356)"/>
<path d="M148.336 166.398C148.336 169.835 147.372 172.534 145.444 174.494C143.549 176.422 140.93 177.386 137.589 177.386C134.28 177.386 131.677 176.422 129.782 174.494C127.918 172.534 126.986 169.835 126.986 166.398C126.986 162.992 127.918 160.325 129.782 158.398C131.677 156.438 134.312 155.458 137.685 155.458C141.123 155.458 143.757 156.406 145.589 158.301C147.42 160.165 148.336 162.863 148.336 166.398ZM142.553 166.398C142.553 163.892 142.135 162.076 141.3 160.952C140.496 159.827 139.324 159.265 137.782 159.265C134.44 159.265 132.77 161.643 132.77 166.398C132.77 168.743 133.171 170.542 133.974 171.795C134.81 173.016 135.982 173.627 137.492 173.627C140.866 173.627 142.553 171.217 142.553 166.398Z" fill="url(#paint4_linear_365_356)"/>
<path d="M172.646 170.831C172.646 172.888 171.794 174.494 170.091 175.651C168.421 176.807 166.108 177.386 163.152 177.386C160.26 177.386 158.043 176.936 156.501 176.036C154.959 175.104 153.931 173.675 153.417 171.747L158.236 171.024C158.525 172.02 159.007 172.727 159.682 173.145C160.357 173.562 161.513 173.771 163.152 173.771C164.694 173.771 165.818 173.578 166.525 173.193C167.232 172.775 167.585 172.149 167.585 171.313C167.585 170.639 167.296 170.108 166.718 169.723C166.172 169.337 165.224 169 163.875 168.711C160.79 168.1 158.702 167.538 157.61 167.024C156.517 166.478 155.682 165.787 155.104 164.952C154.557 164.116 154.284 163.088 154.284 161.867C154.284 159.843 155.055 158.269 156.598 157.145C158.14 156.02 160.34 155.458 163.2 155.458C165.706 155.458 167.73 155.956 169.272 156.952C170.814 157.916 171.762 159.313 172.116 161.145L167.296 161.675C167.136 160.807 166.75 160.165 166.14 159.747C165.529 159.329 164.549 159.12 163.2 159.12C161.883 159.12 160.903 159.281 160.26 159.602C159.618 159.924 159.296 160.486 159.296 161.289C159.296 161.9 159.537 162.382 160.019 162.735C160.533 163.088 161.385 163.378 162.573 163.602C164.212 163.956 165.674 164.309 166.959 164.663C168.276 165.016 169.32 165.45 170.091 165.964C170.863 166.446 171.473 167.072 171.923 167.843C172.405 168.614 172.646 169.61 172.646 170.831Z" fill="url(#paint5_linear_365_356)"/>
<path d="M184.398 155.843V167.699C184.398 171.426 185.651 173.289 188.157 173.289C189.474 173.289 190.534 172.727 191.337 171.602C192.173 170.446 192.59 168.984 192.59 167.217V155.843H198.084V172.277C198.084 174.076 198.133 175.651 198.229 177H193.024C192.863 175.137 192.783 173.739 192.783 172.807H192.687C191.948 174.414 191.016 175.586 189.892 176.325C188.767 177.032 187.434 177.386 185.892 177.386C183.643 177.386 181.908 176.711 180.687 175.361C179.498 173.98 178.904 171.956 178.904 169.289V155.843H184.398Z" fill="url(#paint6_linear_365_356)"/>
<path d="M223.647 170.831C223.647 172.888 222.796 174.494 221.093 175.651C219.422 176.807 217.109 177.386 214.153 177.386C211.262 177.386 209.045 176.936 207.503 176.036C205.961 175.104 204.932 173.675 204.418 171.747L209.238 171.024C209.527 172.02 210.009 172.727 210.683 173.145C211.358 173.562 212.515 173.771 214.153 173.771C215.695 173.771 216.82 173.578 217.527 173.193C218.234 172.775 218.587 172.149 218.587 171.313C218.587 170.639 218.298 170.108 217.72 169.723C217.173 169.337 216.226 169 214.876 168.711C211.792 168.1 209.703 167.538 208.611 167.024C207.519 166.478 206.683 165.787 206.105 164.952C205.559 164.116 205.286 163.088 205.286 161.867C205.286 159.843 206.057 158.269 207.599 157.145C209.141 156.02 211.342 155.458 214.201 155.458C216.708 155.458 218.732 155.956 220.274 156.952C221.816 157.916 222.764 159.313 223.117 161.145L218.298 161.675C218.137 160.807 217.752 160.165 217.141 159.747C216.531 159.329 215.551 159.12 214.201 159.12C212.884 159.12 211.904 159.281 211.262 159.602C210.619 159.924 210.298 160.486 210.298 161.289C210.298 161.9 210.539 162.382 211.021 162.735C211.535 163.088 212.386 163.378 213.575 163.602C215.214 163.956 216.675 164.309 217.961 164.663C219.278 165.016 220.322 165.45 221.093 165.964C221.864 166.446 222.475 167.072 222.924 167.843C223.406 168.614 223.647 169.61 223.647 170.831Z" fill="url(#paint7_linear_365_356)"/>
<path d="M172.618 60C172.618 93.1371 145.755 120 112.618 120C79.4806 120 52.6176 93.1371 52.6176 60C52.6176 26.8629 79.4806 0 112.618 0C145.755 0 172.618 26.8629 172.618 60Z" fill="url(#paint8_linear_365_356)"/>
<defs>
<linearGradient id="paint0_linear_365_356" x1="111.824" y1="0" x2="111.824" y2="177.386" gradientUnits="userSpaceOnUse">
<stop stop-color="#465E79"/>
<stop offset="0.979167" stop-color="#4B3F4F"/>
</linearGradient>
<linearGradient id="paint1_linear_365_356" x1="111.824" y1="0" x2="111.824" y2="177.386" gradientUnits="userSpaceOnUse">
<stop stop-color="#465E79"/>
<stop offset="0.979167" stop-color="#4B3F4F"/>
</linearGradient>
<linearGradient id="paint2_linear_365_356" x1="111.824" y1="0" x2="111.824" y2="177.386" gradientUnits="userSpaceOnUse">
<stop stop-color="#465E79"/>
<stop offset="0.979167" stop-color="#4B3F4F"/>
</linearGradient>
<linearGradient id="paint3_linear_365_356" x1="111.824" y1="0" x2="111.824" y2="177.386" gradientUnits="userSpaceOnUse">
<stop stop-color="#465E79"/>
<stop offset="0.979167" stop-color="#4B3F4F"/>
</linearGradient>
<linearGradient id="paint4_linear_365_356" x1="111.824" y1="0" x2="111.824" y2="177.386" gradientUnits="userSpaceOnUse">
<stop stop-color="#465E79"/>
<stop offset="0.979167" stop-color="#4B3F4F"/>
</linearGradient>
<linearGradient id="paint5_linear_365_356" x1="111.824" y1="0" x2="111.824" y2="177.386" gradientUnits="userSpaceOnUse">
<stop stop-color="#465E79"/>
<stop offset="0.979167" stop-color="#4B3F4F"/>
</linearGradient>
<linearGradient id="paint6_linear_365_356" x1="111.824" y1="0" x2="111.824" y2="177.386" gradientUnits="userSpaceOnUse">
<stop stop-color="#465E79"/>
<stop offset="0.979167" stop-color="#4B3F4F"/>
</linearGradient>
<linearGradient id="paint7_linear_365_356" x1="111.824" y1="0" x2="111.824" y2="177.386" gradientUnits="userSpaceOnUse">
<stop stop-color="#465E79"/>
<stop offset="0.979167" stop-color="#4B3F4F"/>
</linearGradient>
<linearGradient id="paint8_linear_365_356" x1="111.824" y1="0" x2="111.824" y2="177.386" gradientUnits="userSpaceOnUse">
<stop stop-color="#465E79"/>
<stop offset="0.979167" stop-color="#4B3F4F"/>
</linearGradient>
</defs>
</svg>
