<svg width="248" height="69" viewBox="0 0 248 69" fill="none" xmlns="http://www.w3.org/2000/svg">
<g filter="url(#filter0_d_935_2212)">
<path d="M14.9919 20.6C13.0648 22.0636 11.7424 23.9186 11.1854 25.9393C10.6285 27.9601 10.8611 30.0595 11.8549 31.9822C13.2708 30.0831 15.4175 28.5538 18.0104 27.597C18.1398 26.587 18.6501 25.6263 19.4807 24.8287C20.3113 24.0312 21.4273 23.4303 22.6965 23.0973C23.9656 22.7643 25.3345 22.7132 26.6409 22.95C27.9473 23.1869 29.1364 23.7017 30.0671 24.4335C30.9978 25.1653 31.631 26.0834 31.8917 27.0788C32.1524 28.0742 32.0297 29.1051 31.538 30.0494C31.0463 30.9937 30.2064 31.8117 29.1178 32.4064C28.0291 33.001 26.7375 33.3474 25.3961 33.4044V33.4044C21.6128 33.8145 20.3739 34.8998 19.4625 36.3219C18.9519 37.1176 19.1717 37.7555 19.5918 37.9491C24.7627 39.6284 30.7954 38.8148 35.0053 35.6206C37.6123 33.6116 39.0615 30.9054 39.0369 28.0925C39.0122 25.2796 37.5157 22.5882 34.8738 20.6054C32.2318 18.6225 28.6589 17.5092 24.9343 17.5082C21.2097 17.5072 17.6357 18.6186 14.9919 20.6V20.6Z" fill="#F8F5F1"/>
<path d="M34.864 45.2993C36.8182 43.8567 38.1754 42.0163 38.7706 40.002C39.3657 37.9877 39.1732 35.8862 38.2165 33.9529C36.7602 35.8367 34.5816 37.3426 31.9683 38.2715C31.82 39.2804 31.2916 40.236 30.4459 41.0249C29.6001 41.8139 28.4725 42.403 27.1967 42.7226C25.9209 43.0421 24.5506 43.0785 23.2483 42.8275C21.9459 42.5766 20.7662 42.0487 19.8491 41.3067C18.932 40.5646 18.3159 39.6394 18.0741 38.6409C17.8322 37.6424 17.9746 36.6124 18.4845 35.6731C18.9943 34.7339 19.8502 33.9248 20.9505 33.3419C22.0509 32.759 23.3495 32.4266 24.6925 32.3843V32.3843C28.4844 32.015 29.7427 30.9443 30.6821 29.5319C31.2078 28.741 31.0009 28.0999 30.5851 27.9047C25.453 26.1717 19.3815 26.9186 15.1285 30.0672C13.7903 31.043 12.7209 32.209 11.9817 33.4981C11.2425 34.7873 10.8482 36.1741 10.8214 37.5787C10.7946 38.9834 11.1359 40.3782 11.8256 41.6829C12.5153 42.9876 13.5398 44.1764 14.8401 45.1809C16.1405 46.1854 17.691 46.9857 19.4025 47.5359C21.114 48.0861 22.9527 48.3753 24.8127 48.3867C26.6727 48.3982 28.5174 48.1318 30.2406 47.6027C31.9637 47.0737 33.5314 46.2926 34.8532 45.3042L34.864 45.2993Z" fill="#F8F5F1"/>
<path d="M15.6018 14.9523C15.3195 14.9523 12.5854 15.0011 10 15.0857C10 15.0857 16.1426 16.7129 18.5578 17.8796C17.6501 16.8604 16.6631 15.8829 15.6018 14.9523V14.9523Z" fill="#F8F5F1"/>
<path d="M11.3397 10.4969C18.7405 15.6682 22.1124 21.0834 22.1124 21.0834C23.7132 20.3463 28.255 20.8377 28.255 20.8377C20.9123 13.5186 11.3397 10.4969 11.3397 10.4969Z" fill="#F8F5F1"/>
<path d="M26.2319 17.8615C26.7665 18.3033 27.2699 18.7661 27.7401 19.2479C28.6632 18.99 29.6275 18.8258 30.6078 18.7597C30.6078 18.7597 31.9501 14.4786 38.1228 8.90381C38.1207 8.90706 32.7192 10.8369 26.2319 17.8615Z" fill="#F8F5F1"/>
<path d="M20.5317 14.1011C22.3858 15.0816 24.1122 16.1931 25.6875 17.4206L27.3142 15.7934C21.5702 6.73968 12.1118 5.84473 12.1118 5.84473C18.4203 9.66537 20.3852 13.7789 20.5317 14.1011Z" fill="#F8F5F1"/>
<path d="M24.5984 11.213L26.8564 8.7071C26.8564 8.7071 26.5418 5.88555 22.2543 0C22.2543 0 22.3986 6.28909 21.3925 8.7071C21.3989 8.7071 23.5405 10.139 24.5984 11.213Z" fill="#F8F5F1"/>
<path d="M27.6284 15.3766L29.6279 13.6974C29.6279 13.6974 31.0111 8.01196 35.1995 3.02625C35.1995 3.02625 30.229 4.50374 25.1981 11.8001C25.1938 11.7952 26.4865 13.0709 27.6284 15.3766Z" fill="#F8F5F1"/>
<path d="M38.2288 16.207C35.4042 15.7449 32.989 16.6952 32.2241 17.0466C31.8665 17.6438 31.5778 18.1401 31.4248 18.42C34.1115 17.1557 38.2288 16.207 38.2288 16.207Z" fill="#F8F5F1"/>
<path d="M40.0002 11.5498C37.9383 11.5124 35.4951 12.8435 34.6807 13.3251C34.0666 14.1208 33.4073 15.115 32.8342 16.0441C34.9263 13.7221 40.0002 11.5498 40.0002 11.5498Z" fill="#F8F5F1"/>
<path d="M63.4664 21.2198C63.8286 21 64.3721 20.7912 65.0967 20.5934C65.8426 20.3956 66.5885 20.2967 67.3344 20.2967C68.3999 20.2967 69.3376 20.4616 70.1474 20.7912C70.9786 21.099 71.5114 21.5935 71.7458 22.2748C72.1294 23.4177 72.545 24.7475 72.9925 26.264C73.44 27.7806 73.8876 29.3521 74.3351 30.9785C74.7827 32.583 75.2195 34.1765 75.6458 35.759C76.072 37.3195 76.4449 38.7041 76.7646 39.913C76.5089 40.2207 76.1253 40.4625 75.6138 40.6383C75.1023 40.8361 74.495 40.935 73.7917 40.935C73.2802 40.935 72.8433 40.8911 72.481 40.8031C72.1401 40.7152 71.8524 40.5834 71.6179 40.4075C71.4048 40.2317 71.2237 40.0009 71.0745 39.7152C70.9466 39.4295 70.8294 39.0998 70.7229 38.7261L70.1474 36.4513H64.3614C64.1909 37.1107 64.0204 37.792 63.85 38.4953C63.6795 39.1987 63.509 39.88 63.3385 40.5394C63.0401 40.6493 62.7205 40.7372 62.3795 40.8031C62.0598 40.8911 61.6655 40.935 61.1967 40.935C60.1098 40.935 59.3 40.7482 58.7672 40.3745C58.2557 39.9789 58 39.4404 58 38.7591C58 38.4514 58.0426 38.1437 58.1279 37.836C58.2131 37.5283 58.309 37.1656 58.4156 36.748C58.5647 36.1546 58.7672 35.4183 59.0229 34.5391C59.3 33.66 59.5983 32.7149 59.918 31.7038C60.2377 30.6708 60.5787 29.6158 60.941 28.5388C61.3033 27.4619 61.6442 26.4508 61.9639 25.5057C62.2836 24.5387 62.5713 23.6815 62.827 22.9342C63.1041 22.1869 63.3172 21.6155 63.4664 21.2198ZM67.3024 25.4728C67.004 26.3959 66.663 27.4289 66.2794 28.5718C65.9172 29.6927 65.5868 30.8357 65.2885 32.0005H69.2524C68.954 30.8137 68.645 29.6598 68.3253 28.5388C68.027 27.3959 67.7499 26.3739 67.4942 25.4728H67.3024Z" fill="#F8F5F1"/>
<path d="M78.2486 34.4732C78.0994 34.2314 77.9609 33.9127 77.833 33.5171C77.7051 33.1215 77.6412 32.7039 77.6412 32.2643C77.6412 31.4511 77.8223 30.8686 78.1846 30.517C78.5469 30.1433 79.0158 29.9565 79.5912 29.9565H86.4321C86.56 30.1983 86.6879 30.517 86.8157 30.9126C86.9649 31.3082 87.0395 31.7258 87.0395 32.1654C87.0395 32.9786 86.8583 33.572 86.4961 33.9457C86.1338 34.2974 85.6649 34.4732 85.0895 34.4732H78.2486Z" fill="#F8F5F1"/>
<path d="M106.338 24.6486C104.697 24.6486 103.44 25.1651 102.566 26.1981C101.692 27.2311 101.256 28.6927 101.256 30.5829C101.256 32.4951 101.735 33.9677 102.694 35.0007C103.674 36.0337 104.985 36.5502 106.626 36.5502C107.5 36.5502 108.235 36.4293 108.832 36.1875C109.45 35.9458 110.036 35.671 110.59 35.3633C110.952 35.671 111.229 36.0447 111.421 36.4843C111.634 36.9019 111.741 37.3964 111.741 37.9678C111.741 38.869 111.251 39.6383 110.27 40.2756C109.311 40.8911 107.841 41.1988 105.859 41.1988C104.431 41.1988 103.088 40.99 101.831 40.5724C100.574 40.1548 99.4761 39.5174 98.5384 38.6602C97.6007 37.781 96.8548 36.6821 96.3007 35.3633C95.7679 34.0226 95.5015 32.4291 95.5015 30.5829C95.5015 28.8685 95.7572 27.363 96.2687 26.0662C96.8015 24.7475 97.5154 23.6375 98.4105 22.7364C99.3269 21.8352 100.392 21.1539 101.607 20.6923C102.822 20.2308 104.122 20 105.507 20C107.468 20 108.981 20.3297 110.046 20.9891C111.133 21.6484 111.677 22.4946 111.677 23.5276C111.677 24.0991 111.538 24.5936 111.261 25.0112C110.984 25.4288 110.664 25.7585 110.302 26.0003C109.748 25.6266 109.151 25.3079 108.512 25.0442C107.894 24.7804 107.169 24.6486 106.338 24.6486Z" fill="#F8F5F1"/>
<path d="M113.452 30.5829C113.452 28.8685 113.707 27.352 114.219 26.0332C114.752 24.7145 115.466 23.6155 116.361 22.7364C117.277 21.8352 118.343 21.1539 119.557 20.6923C120.793 20.2308 122.125 20 123.553 20C124.981 20 126.302 20.2308 127.517 20.6923C128.753 21.1539 129.829 21.8352 130.746 22.7364C131.662 23.6155 132.376 24.7145 132.888 26.0332C133.42 27.352 133.687 28.8685 133.687 30.5829C133.687 32.2973 133.431 33.8248 132.92 35.1655C132.408 36.4843 131.694 37.5942 130.778 38.4953C129.883 39.3745 128.817 40.0449 127.581 40.5064C126.345 40.968 125.002 41.1988 123.553 41.1988C122.104 41.1988 120.761 40.968 119.525 40.5064C118.289 40.0229 117.224 39.3305 116.329 38.4294C115.434 37.5283 114.73 36.4183 114.219 35.0996C113.707 33.7808 113.452 32.2753 113.452 30.5829ZM119.206 30.5829C119.206 32.583 119.6 34.0776 120.389 35.0666C121.177 36.0557 122.232 36.5502 123.553 36.5502C124.896 36.5502 125.961 36.0557 126.75 35.0666C127.538 34.0776 127.933 32.583 127.933 30.5829C127.933 28.6048 127.538 27.1212 126.75 26.1321C125.983 25.1431 124.928 24.6486 123.585 24.6486C122.264 24.6486 121.198 25.1431 120.389 26.1321C119.6 27.0992 119.206 28.5828 119.206 30.5829Z" fill="#F8F5F1"/>
<path d="M150.188 35.693C149.911 35.9348 149.549 36.1326 149.101 36.2865C148.675 36.4183 148.174 36.4843 147.599 36.4843C146.831 36.4843 146.192 36.3854 145.681 36.1875C145.19 35.9897 144.871 35.6491 144.722 35.1655C144.125 33.2314 143.635 31.6709 143.251 30.484C142.868 29.2751 142.569 28.2202 142.356 27.319H142.196C142.132 28.6158 142.079 29.8026 142.036 30.8796C142.015 31.9346 141.994 32.9676 141.972 33.9787C141.972 34.9897 141.951 36.0117 141.909 37.0447C141.887 38.0777 141.845 39.2207 141.781 40.4735C141.504 40.5834 141.141 40.6713 140.694 40.7372C140.246 40.8251 139.799 40.8691 139.351 40.8691C138.413 40.8691 137.678 40.7152 137.145 40.4075C136.634 40.0998 136.378 39.5393 136.378 38.7261L137.305 21.9122C137.476 21.6264 137.849 21.3187 138.424 20.9891C139 20.6594 139.809 20.4945 140.854 20.4945C141.983 20.4945 142.868 20.6813 143.507 21.055C144.146 21.4067 144.615 21.9891 144.913 22.8023C145.105 23.3298 145.308 23.9342 145.521 24.6156C145.755 25.2969 145.979 26.0003 146.192 26.7256C146.427 27.4509 146.65 28.1762 146.863 28.9015C147.077 29.6048 147.268 30.2422 147.439 30.8137H147.599C148.11 28.9674 148.622 27.1871 149.133 25.4728C149.645 23.7364 150.113 22.2858 150.54 21.1209C150.859 20.9451 151.264 20.8022 151.754 20.6923C152.266 20.5605 152.831 20.4945 153.449 20.4945C154.493 20.4945 155.345 20.6594 156.006 20.9891C156.667 21.2968 157.05 21.7473 157.157 22.3408C157.242 22.7803 157.327 23.4617 157.413 24.3848C157.519 25.286 157.626 26.308 157.732 27.4509C157.839 28.5938 157.945 29.8026 158.052 31.0774C158.158 32.3522 158.254 33.583 158.34 34.7699C158.446 35.9348 158.531 37.0118 158.595 38.0008C158.659 38.9679 158.702 39.7152 158.723 40.2427C158.361 40.4625 157.977 40.6163 157.572 40.7042C157.189 40.8141 156.688 40.8691 156.07 40.8691C155.26 40.8691 154.578 40.7262 154.024 40.4405C153.47 40.1548 153.172 39.5943 153.129 38.7591C153.001 36.3634 152.916 34.2094 152.873 32.2973C152.852 30.3851 152.809 28.7806 152.745 27.4839H152.586C152.372 28.341 152.063 29.418 151.658 30.7148C151.254 32.0115 150.763 33.6709 150.188 35.693Z" fill="#F8F5F1"/>
<path d="M161.152 30.5829C161.152 28.8685 161.408 27.352 161.92 26.0332C162.452 24.7145 163.166 23.6155 164.061 22.7364C164.978 21.8352 166.043 21.1539 167.258 20.6923C168.494 20.2308 169.826 20 171.254 20C172.682 20 174.003 20.2308 175.218 20.6923C176.454 21.1539 177.53 21.8352 178.447 22.7364C179.363 23.6155 180.077 24.7145 180.588 26.0332C181.121 27.352 181.387 28.8685 181.387 30.5829C181.387 32.2973 181.132 33.8248 180.62 35.1655C180.109 36.4843 179.395 37.5942 178.478 38.4953C177.583 39.3745 176.518 40.0449 175.282 40.5064C174.046 40.968 172.703 41.1988 171.254 41.1988C169.805 41.1988 168.462 40.968 167.226 40.5064C165.99 40.0229 164.925 39.3305 164.029 38.4294C163.134 37.5283 162.431 36.4183 161.92 35.0996C161.408 33.7808 161.152 32.2753 161.152 30.5829ZM166.906 30.5829C166.906 32.583 167.301 34.0776 168.089 35.0666C168.878 36.0557 169.933 36.5502 171.254 36.5502C172.597 36.5502 173.662 36.0557 174.451 35.0666C175.239 34.0776 175.633 32.583 175.633 30.5829C175.633 28.6048 175.239 27.1212 174.451 26.1321C173.683 25.1431 172.629 24.6486 171.286 24.6486C169.965 24.6486 168.899 25.1431 168.089 26.1321C167.301 27.0992 166.906 28.5828 166.906 30.5829Z" fill="#F8F5F1"/>
<path d="M190.087 32.6599C189.149 32.3302 188.296 32.0005 187.529 31.6709C186.762 31.3192 186.101 30.9016 185.547 30.4181C184.993 29.9345 184.556 29.3631 184.237 28.7037C183.938 28.0223 183.789 27.1981 183.789 26.2311C183.789 24.3628 184.482 22.8683 185.867 21.7473C187.273 20.6264 189.234 20.0659 191.749 20.0659C192.665 20.0659 193.518 20.1319 194.306 20.2637C195.095 20.3956 195.766 20.6044 196.32 20.8901C196.895 21.1539 197.343 21.5056 197.663 21.9451C197.982 22.3627 198.142 22.8573 198.142 23.4287C198.142 24.0002 198.014 24.4947 197.759 24.9123C197.503 25.3079 197.194 25.6486 196.832 25.9343C196.363 25.6266 195.734 25.3629 194.945 25.1431C194.157 24.9013 193.294 24.7804 192.356 24.7804C191.397 24.7804 190.694 24.9233 190.246 25.209C189.799 25.4728 189.575 25.8134 189.575 26.2311C189.575 26.5607 189.714 26.8355 189.991 27.0553C190.268 27.2531 190.683 27.4399 191.237 27.6157L192.932 28.1762C194.935 28.8356 196.469 29.6818 197.535 30.7148C198.622 31.7258 199.165 33.1105 199.165 34.8688C199.165 36.737 198.451 38.2536 197.023 39.4185C195.595 40.5614 193.496 41.1328 190.726 41.1328C189.746 41.1328 188.829 41.0449 187.977 40.8691C187.146 40.7152 186.41 40.4844 185.771 40.1767C185.153 39.8471 184.663 39.4514 184.3 38.9899C183.96 38.5063 183.789 37.9569 183.789 37.3414C183.789 36.7041 183.97 36.1656 184.332 35.726C184.695 35.2644 185.089 34.9128 185.515 34.671C186.112 35.1545 186.837 35.5721 187.689 35.9238C188.563 36.2755 189.511 36.4513 190.534 36.4513C191.578 36.4513 192.314 36.2865 192.74 35.9568C193.166 35.6271 193.379 35.2424 193.379 34.8029C193.379 34.3633 193.209 34.0336 192.868 33.8138C192.527 33.572 192.047 33.3413 191.429 33.1215L190.087 32.6599Z" fill="#F8F5F1"/>
<path d="M219.361 33.2204C219.361 34.4072 219.159 35.4952 218.754 36.4843C218.37 37.4513 217.806 38.2865 217.06 38.9899C216.314 39.6712 215.408 40.1987 214.342 40.5724C213.277 40.946 212.073 41.1328 210.73 41.1328C209.388 41.1328 208.183 40.946 207.118 40.5724C206.052 40.1987 205.147 39.6712 204.401 38.9899C203.655 38.2865 203.079 37.4513 202.674 36.4843C202.291 35.4952 202.099 34.4072 202.099 33.2204V20.6264C202.334 20.5824 202.706 20.5275 203.218 20.4616C203.729 20.3736 204.22 20.3297 204.688 20.3297C205.179 20.3297 205.605 20.3736 205.967 20.4616C206.351 20.5275 206.67 20.6594 206.926 20.8572C207.182 21.055 207.374 21.3297 207.502 21.6814C207.629 22.0331 207.693 22.4946 207.693 23.0661V33.1215C207.693 34.1765 207.97 35.0007 208.524 35.5941C209.1 36.1875 209.835 36.4843 210.73 36.4843C211.647 36.4843 212.382 36.1875 212.936 35.5941C213.49 35.0007 213.767 34.1765 213.767 33.1215V20.6264C214.001 20.5824 214.374 20.5275 214.886 20.4616C215.397 20.3736 215.888 20.3297 216.356 20.3297C216.847 20.3297 217.273 20.3736 217.635 20.4616C218.019 20.5275 218.338 20.6594 218.594 20.8572C218.85 21.055 219.042 21.3297 219.169 21.6814C219.297 22.0331 219.361 22.4946 219.361 23.0661V33.2204Z" fill="#F8F5F1"/>
<path d="M228.921 32.6599C227.984 32.3302 227.131 32.0005 226.364 31.6709C225.597 31.3192 224.936 30.9016 224.382 30.4181C223.828 29.9345 223.391 29.3631 223.071 28.7037C222.773 28.0223 222.624 27.1981 222.624 26.2311C222.624 24.3628 223.316 22.8683 224.702 21.7473C226.108 20.6264 228.069 20.0659 230.584 20.0659C231.5 20.0659 232.352 20.1319 233.141 20.2637C233.93 20.3956 234.601 20.6044 235.155 20.8901C235.73 21.1539 236.178 21.5056 236.498 21.9451C236.817 22.3627 236.977 22.8573 236.977 23.4287C236.977 24.0002 236.849 24.4947 236.593 24.9123C236.338 25.3079 236.029 25.6486 235.666 25.9343C235.198 25.6266 234.569 25.3629 233.78 25.1431C232.992 24.9013 232.129 24.7804 231.191 24.7804C230.232 24.7804 229.529 24.9233 229.081 25.209C228.634 25.4728 228.41 25.8134 228.41 26.2311C228.41 26.5607 228.548 26.8355 228.825 27.0553C229.103 27.2531 229.518 27.4399 230.072 27.6157L231.766 28.1762C233.77 28.8356 235.304 29.6818 236.37 30.7148C237.457 31.7258 238 33.1105 238 34.8688C238 36.737 237.286 38.2536 235.858 39.4185C234.43 40.5614 232.331 41.1328 229.561 41.1328C228.58 41.1328 227.664 41.0449 226.812 40.8691C225.98 40.7152 225.245 40.4844 224.606 40.1767C223.988 39.8471 223.498 39.4514 223.135 38.9899C222.794 38.5063 222.624 37.9569 222.624 37.3414C222.624 36.7041 222.805 36.1656 223.167 35.726C223.53 35.2644 223.924 34.9128 224.35 34.671C224.947 35.1545 225.671 35.5721 226.524 35.9238C227.398 36.2755 228.346 36.4513 229.369 36.4513C230.413 36.4513 231.148 36.2865 231.575 35.9568C232.001 35.6271 232.214 35.2424 232.214 34.8029C232.214 34.3633 232.043 34.0336 231.703 33.8138C231.362 33.572 230.882 33.3413 230.264 33.1215L228.921 32.6599Z" fill="#F8F5F1"/>
</g>
<defs>
<filter id="filter0_d_935_2212" x="0" y="0" width="248" height="68.3871" filterUnits="userSpaceOnUse" color-interpolation-filters="sRGB">
<feFlood flood-opacity="0" result="BackgroundImageFix"/>
<feColorMatrix in="SourceAlpha" type="matrix" values="0 0 0 0 0 0 0 0 0 0 0 0 0 0 0 0 0 0 127 0" result="hardAlpha"/>
<feOffset dy="10"/>
<feGaussianBlur stdDeviation="5"/>
<feComposite in2="hardAlpha" operator="out"/>
<feColorMatrix type="matrix" values="0 0 0 0 0 0 0 0 0 0 0 0 0 0 0 0 0 0 0.05 0"/>
<feBlend mode="normal" in2="BackgroundImageFix" result="effect1_dropShadow_935_2212"/>
<feBlend mode="normal" in="SourceGraphic" in2="effect1_dropShadow_935_2212" result="shape"/>
</filter>
</defs>
</svg>
