<svg width="108" height="89" viewBox="0 0 108 89" fill="none" xmlns="http://www.w3.org/2000/svg">
<g filter="url(#filter0_d_420_293)">
<path d="M43.1012 22.4662C41.0026 24.061 39.5625 26.0823 38.956 28.2842C38.3495 30.4862 38.6028 32.7738 39.685 34.869C41.227 32.7996 43.5647 31.1331 46.3884 30.0905C46.5294 28.99 47.0851 27.9431 47.9896 27.074C48.8941 26.205 50.1095 25.5502 51.4916 25.1873C52.8736 24.8245 54.3644 24.7688 55.7871 25.0269C57.2098 25.285 58.5047 25.846 59.5182 26.6434C60.5317 27.4408 61.2213 28.4412 61.5052 29.5258C61.7891 30.6105 61.6555 31.7339 61.12 32.7629C60.5846 33.7919 59.6699 34.6832 58.4844 35.3312C57.2988 35.9791 55.8923 36.3566 54.4315 36.4187C50.3114 36.8655 48.9623 38.0482 47.9698 39.5979C47.4137 40.4649 47.6531 41.16 48.1106 41.371C53.7417 43.2008 60.3113 42.3143 64.8959 38.8337C67.7349 36.6444 69.3131 33.6956 69.2863 30.6305C69.2595 27.5653 67.6297 24.6326 64.7527 22.4719C61.8756 20.3113 57.9846 19.0981 53.9285 19.097C49.8724 19.096 45.9803 20.3071 43.1012 22.4662Z" fill="#F8F5F1"/>
<path d="M64.7416 49.3801C66.8698 47.8081 68.3478 45.8027 68.9959 43.6077C69.644 41.4128 69.4344 39.1228 68.3925 37.0162C66.8066 39.069 64.4341 40.7098 61.5882 41.7221C61.4267 42.8214 60.8513 43.8627 59.9303 44.7224C59.0093 45.5821 57.7812 46.2241 56.3919 46.5722C55.0026 46.9204 53.5103 46.9601 52.0921 46.6866C50.6738 46.4132 49.3891 45.838 48.3904 45.0294C47.3916 44.2208 46.7208 43.2126 46.4574 42.1246C46.194 41.0365 46.3491 39.9142 46.9043 38.8907C47.4595 37.8673 48.3916 36.9856 49.5899 36.3504C50.7881 35.7152 52.2024 35.3531 53.6648 35.307C57.7943 34.9045 59.1645 33.7378 60.1875 32.1987C60.76 31.337 60.5347 30.6384 60.0819 30.4256C54.4931 28.5373 47.8812 29.3511 43.2496 32.7821C41.7924 33.8454 40.6278 35.1159 39.8228 36.5207C39.0178 37.9254 38.5884 39.4365 38.5592 40.9672C38.53 42.4978 38.9017 44.0177 39.6527 45.4393C40.4038 46.861 41.5195 48.1564 42.9356 49.251C44.3517 50.3456 46.0402 51.2177 47.904 51.8172C49.7679 52.4168 51.7702 52.7318 53.7957 52.7443C55.8213 52.7568 57.8302 52.4665 59.7067 51.89C61.5832 51.3136 63.2904 50.4624 64.7299 49.3854L64.7416 49.3801Z" fill="#F8F5F1"/>
<path d="M43.7654 16.3115C43.458 16.3115 40.4806 16.3647 37.665 16.4569C37.665 16.4569 44.3543 18.2298 46.9845 19.501C45.996 18.3906 44.9211 17.3255 43.7654 16.3115Z" fill="#F8F5F1"/>
<path d="M39.124 11.4568C47.1835 17.0917 50.8555 22.9926 50.8555 22.9926C52.5988 22.1894 57.5448 22.7248 57.5448 22.7248C49.5486 14.7494 39.124 11.4568 39.124 11.4568Z" fill="#F8F5F1"/>
<path d="M55.342 19.4819C55.9242 19.9633 56.4724 20.4676 56.9844 20.9926C57.9897 20.7115 59.0398 20.5327 60.1074 20.4606C60.1074 20.4606 61.5691 15.7956 68.2912 9.72095C68.2889 9.72449 62.4067 11.8274 55.342 19.4819Z" fill="#F8F5F1"/>
<path d="M49.134 15.3843C51.1531 16.4527 53.0331 17.6639 54.7487 19.0014L56.5202 17.2283C50.2649 7.36278 39.9647 6.38757 39.9647 6.38757C46.8347 10.5508 48.9745 15.0332 49.134 15.3843Z" fill="#F8F5F1"/>
<path d="M53.5633 12.237L56.0222 9.50642C56.0222 9.50642 55.6797 6.43186 51.0105 0.0185547C51.0105 0.0185547 51.1677 6.8716 50.072 9.50642C50.0791 9.50642 52.4113 11.0668 53.5633 12.237Z" fill="#F8F5F1"/>
<path d="M56.8622 16.7744L59.0396 14.9445C59.0396 14.9445 60.5459 8.74931 65.1071 3.31653C65.1071 3.31653 59.6942 4.92651 54.2156 12.8771C54.2109 12.8718 55.6187 14.2619 56.8622 16.7744Z" fill="#F8F5F1"/>
<path d="M68.4064 17.6786C65.3304 17.1751 62.7002 18.2105 61.8673 18.5934C61.4778 19.2441 61.1634 19.7848 60.9968 20.0897C63.9227 18.7122 68.4064 17.6786 68.4064 17.6786Z" fill="#F8F5F1"/>
<path d="M70.3349 12.604C68.0895 12.5632 65.4288 14.0136 64.5419 14.5384C63.8732 15.4055 63.1552 16.4889 62.5311 17.5013C64.8094 14.9711 70.3349 12.604 70.3349 12.604Z" fill="#F8F5F1"/>
<path d="M12.6724 58.2334C12.8496 58.1258 13.1152 58.0235 13.4695 57.9266C13.8341 57.8297 14.1988 57.7813 14.5635 57.7813C15.0844 57.7813 15.5428 57.862 15.9388 58.0235C16.3451 58.1742 16.6056 58.4164 16.7202 58.7501C16.9077 59.3099 17.1109 59.9612 17.3297 60.7039C17.5485 61.4467 17.7673 62.2163 17.9861 63.0129C18.2049 63.7988 18.4184 64.5792 18.6268 65.3542C18.8352 66.1185 19.0175 66.7967 19.1738 67.3888C19.0488 67.5395 18.8612 67.6579 18.6112 67.744C18.3611 67.8409 18.0642 67.8893 17.7204 67.8893C17.4703 67.8893 17.2567 67.8678 17.0796 67.8247C16.9129 67.7817 16.7723 67.7171 16.6577 67.631C16.5535 67.5449 16.4649 67.4318 16.392 67.2919C16.3295 67.1519 16.2722 66.9905 16.2201 66.8075L15.9388 65.6933H13.11C13.0267 66.0163 12.9433 66.35 12.86 66.6944C12.7766 67.0389 12.6933 67.3726 12.6099 67.6956C12.4641 67.7494 12.3078 67.7924 12.1411 67.8247C11.9848 67.8678 11.792 67.8893 11.5628 67.8893C11.0315 67.8893 10.6356 67.7978 10.3751 67.6148C10.125 67.4211 10 67.1573 10 66.8236C10 66.6729 10.0208 66.5222 10.0625 66.3715C10.1042 66.2208 10.1511 66.0432 10.2032 65.8387C10.2761 65.548 10.3751 65.1874 10.5001 64.7568C10.6356 64.3262 10.7814 63.8633 10.9377 63.3682C11.094 62.8622 11.2607 62.3455 11.4378 61.8181C11.6149 61.2906 11.7816 60.7954 11.9379 60.3325C12.0942 59.8589 12.2348 59.4391 12.3599 59.0731C12.4953 58.7071 12.5995 58.4272 12.6724 58.2334ZM14.5478 60.3164C14.402 60.7685 14.2353 61.2744 14.0477 61.8342C13.8706 62.3832 13.7091 62.943 13.5633 63.5135H15.5012C15.3553 62.9322 15.2042 62.3671 15.0479 61.8181C14.9021 61.2583 14.7666 60.7577 14.6416 60.3164H14.5478Z" fill="#F8F5F1"/>
<path d="M19.8993 64.7245C19.8264 64.6061 19.7586 64.45 19.6961 64.2562C19.6336 64.0625 19.6024 63.858 19.6024 63.6427C19.6024 63.2444 19.6909 62.9591 19.868 62.7869C20.0452 62.6039 20.2744 62.5124 20.5557 62.5124H23.9001C23.9627 62.6308 24.0252 62.7869 24.0877 62.9806C24.1606 63.1744 24.1971 63.3789 24.1971 63.5942C24.1971 63.9925 24.1085 64.2832 23.9314 64.4662C23.7543 64.6384 23.5251 64.7245 23.2438 64.7245H19.8993Z" fill="#F8F5F1"/>
<path d="M33.6321 59.9127C32.8298 59.9127 32.2151 60.1657 31.7879 60.6716C31.3607 61.1776 31.1472 61.8934 31.1472 62.8192C31.1472 63.7557 31.3816 64.4769 31.8504 64.9829C32.3297 65.4888 32.9705 65.7418 33.7727 65.7418C34.1999 65.7418 34.5593 65.6826 34.8511 65.5642C35.1532 65.4457 35.4397 65.3112 35.7106 65.1605C35.8877 65.3112 36.0232 65.4942 36.117 65.7095C36.2211 65.914 36.2732 66.1562 36.2732 66.4361C36.2732 66.8774 36.0336 67.2542 35.5543 67.5664C35.0855 67.8678 34.3666 68.0185 33.3976 68.0185C32.6996 68.0185 32.0432 67.9162 31.4285 67.7117C30.8138 67.5072 30.2772 67.195 29.8188 66.7752C29.3603 66.3446 28.9957 65.8064 28.7248 65.1605C28.4643 64.5038 28.3341 63.7234 28.3341 62.8192C28.3341 61.9795 28.4591 61.2421 28.7091 60.607C28.9696 59.9612 29.3186 59.4175 29.7562 58.9762C30.2043 58.5348 30.7252 58.2011 31.3191 57.9751C31.9129 57.749 32.5485 57.636 33.2257 57.636C34.1843 57.636 34.924 57.7975 35.4449 58.1204C35.9763 58.4433 36.242 58.8578 36.242 59.3637C36.242 59.6436 36.1743 59.8858 36.0388 60.0903C35.9034 60.2949 35.7471 60.4563 35.57 60.5747C35.2991 60.3917 35.0073 60.2357 34.6948 60.1065C34.3926 59.9773 34.0384 59.9127 33.6321 59.9127Z" fill="#F8F5F1"/>
<path d="M37.1097 62.8192C37.1097 61.9795 37.2347 61.2368 37.4848 60.5909C37.7453 59.945 38.0943 59.4068 38.5319 58.9762C38.9799 58.5348 39.5009 58.2011 40.0947 57.9751C40.699 57.749 41.3502 57.636 42.0483 57.636C42.7463 57.636 43.3923 57.749 43.9862 57.9751C44.5905 58.2011 45.1166 58.5348 45.5646 58.9762C46.0126 59.4068 46.3617 59.945 46.6117 60.5909C46.8722 61.2368 47.0024 61.9795 47.0024 62.8192C47.0024 63.6588 46.8774 64.407 46.6273 65.0636C46.3773 65.7095 46.0283 66.2531 45.5803 66.6944C45.1427 67.125 44.6217 67.4534 44.0174 67.6794C43.4131 67.9055 42.7567 68.0185 42.0483 68.0185C41.3398 68.0185 40.6834 67.9055 40.0791 67.6794C39.4748 67.4426 38.9539 67.1035 38.5163 66.6622C38.0787 66.2208 37.7348 65.6772 37.4848 65.0313C37.2347 64.3854 37.1097 63.648 37.1097 62.8192ZM39.9228 62.8192C39.9228 63.7988 40.1156 64.5307 40.5011 65.0152C40.8866 65.4996 41.4023 65.7418 42.0483 65.7418C42.7047 65.7418 43.2256 65.4996 43.6111 65.0152C43.9966 64.5307 44.1893 63.7988 44.1893 62.8192C44.1893 61.8503 43.9966 61.1237 43.6111 60.6393C43.236 60.1549 42.7203 59.9127 42.0639 59.9127C41.4179 59.9127 40.897 60.1549 40.5011 60.6393C40.1156 61.113 39.9228 61.8396 39.9228 62.8192Z" fill="#F8F5F1"/>
<path d="M55.0697 65.322C54.9342 65.4404 54.7571 65.5372 54.5383 65.6126C54.3299 65.6772 54.0851 65.7095 53.8038 65.7095C53.4287 65.7095 53.1161 65.661 52.8661 65.5642C52.6265 65.4673 52.4702 65.3004 52.3972 65.0636C52.1055 64.1163 51.8659 63.352 51.6783 62.7707C51.4908 62.1787 51.3449 61.662 51.2407 61.2206H51.1626C51.1314 61.8557 51.1053 62.437 51.0845 62.9645C51.074 63.4812 51.0636 63.9871 51.0532 64.4823C51.0532 64.9775 51.0428 65.478 51.022 65.984C51.0115 66.4899 50.9907 67.0497 50.9594 67.6633C50.824 67.7171 50.6469 67.7601 50.4281 67.7924C50.2093 67.8355 49.9905 67.857 49.7717 67.857C49.3133 67.857 48.9538 67.7817 48.6933 67.631C48.4433 67.4803 48.3183 67.2058 48.3183 66.8075L48.7715 58.5725C48.8548 58.4326 49.0372 58.2819 49.3185 58.1204C49.5998 57.9589 49.9957 57.8782 50.5062 57.8782C51.0584 57.8782 51.4908 57.9697 51.8034 58.1527C52.1159 58.3249 52.3451 58.6102 52.491 59.0085C52.5848 59.2668 52.6838 59.5629 52.788 59.8966C52.9026 60.2303 53.012 60.5747 53.1161 60.93C53.2308 61.2852 53.3402 61.6404 53.4443 61.9957C53.5485 62.3401 53.6423 62.6523 53.7257 62.9322H53.8038C54.0538 62.028 54.3039 61.156 54.554 60.3164C54.804 59.466 55.0332 58.7555 55.2416 58.185C55.3979 58.0989 55.5958 58.0289 55.8355 57.9751C56.0855 57.9105 56.3616 57.8782 56.6638 57.8782C57.1743 57.8782 57.591 57.9589 57.914 58.1204C58.237 58.2711 58.4246 58.4918 58.4767 58.7824C58.5183 58.9977 58.56 59.3314 58.6017 59.7835C58.6538 60.2249 58.7059 60.7254 58.758 61.2852C58.8101 61.845 58.8622 62.437 58.9142 63.0614C58.9663 63.6857 59.0132 64.2885 59.0549 64.8698C59.107 65.4404 59.1487 65.9678 59.1799 66.4522C59.2112 66.9259 59.232 67.2919 59.2424 67.5502C59.0653 67.6579 58.8778 67.7332 58.6798 67.7763C58.4923 67.8301 58.2474 67.857 57.9453 67.857C57.5494 67.857 57.216 67.7871 56.9451 67.6471C56.6742 67.5072 56.5283 67.2327 56.5075 66.8236C56.445 65.6503 56.4033 64.5953 56.3825 63.6588C56.372 62.7223 56.3512 61.9365 56.3199 61.3014H56.2418C56.1376 61.7212 55.9865 62.2486 55.7886 62.8838C55.5906 63.5189 55.351 64.3316 55.0697 65.322Z" fill="#F8F5F1"/>
<path d="M60.4301 62.8192C60.4301 61.9795 60.5551 61.2368 60.8051 60.5909C61.0656 59.945 61.4146 59.4068 61.8522 58.9762C62.3003 58.5348 62.8212 58.2011 63.4151 57.9751C64.0194 57.749 64.6705 57.636 65.3686 57.636C66.0667 57.636 66.7126 57.749 67.3065 57.9751C67.9108 58.2011 68.437 58.5348 68.885 58.9762C69.333 59.4068 69.682 59.945 69.9321 60.5909C70.1925 61.2368 70.3228 61.9795 70.3228 62.8192C70.3228 63.6588 70.1978 64.407 69.9477 65.0636C69.6976 65.7095 69.3486 66.2531 68.9006 66.6944C68.463 67.125 67.9421 67.4534 67.3378 67.6794C66.7335 67.9055 66.0771 68.0185 65.3686 68.0185C64.6601 68.0185 64.0037 67.9055 63.3994 67.6794C62.7951 67.4426 62.2742 67.1035 61.8366 66.6622C61.399 66.2208 61.0552 65.6772 60.8051 65.0313C60.5551 64.3854 60.4301 63.648 60.4301 62.8192ZM63.2432 62.8192C63.2432 63.7988 63.4359 64.5307 63.8214 65.0152C64.2069 65.4996 64.7226 65.7418 65.3686 65.7418C66.025 65.7418 66.5459 65.4996 66.9314 65.0152C67.3169 64.5307 67.5097 63.7988 67.5097 62.8192C67.5097 61.8503 67.3169 61.1237 66.9314 60.6393C66.5564 60.1549 66.0406 59.9127 65.3842 59.9127C64.7383 59.9127 64.2173 60.1549 63.8214 60.6393C63.4359 61.113 63.2432 61.8396 63.2432 62.8192Z" fill="#F8F5F1"/>
<path d="M74.5756 63.8364C74.1172 63.675 73.7004 63.5135 73.3254 63.352C72.9503 63.1798 72.6273 62.9753 72.3564 62.7384C72.0855 62.5016 71.8719 62.2217 71.7157 61.8988C71.5698 61.5651 71.4969 61.1614 71.4969 60.6878C71.4969 59.7728 71.8355 59.0408 72.5127 58.4918C73.2003 57.9428 74.1589 57.6683 75.3883 57.6683C75.8363 57.6683 76.2531 57.7006 76.6386 57.7652C77.0241 57.8297 77.3523 57.932 77.6231 58.072C77.9045 58.2011 78.1233 58.3734 78.2795 58.5887C78.4358 58.7932 78.514 59.0354 78.514 59.3153C78.514 59.5952 78.4514 59.8374 78.3264 60.0419C78.2014 60.2357 78.0503 60.4025 77.8732 60.5424C77.644 60.3917 77.3366 60.2626 76.9511 60.1549C76.5656 60.0365 76.1437 59.9773 75.6852 59.9773C75.2164 59.9773 74.8726 60.0473 74.6538 60.1872C74.435 60.3164 74.3256 60.4832 74.3256 60.6878C74.3256 60.8492 74.3933 60.9838 74.5287 61.0914C74.6642 61.1883 74.8674 61.2798 75.1382 61.3659L75.9665 61.6404C76.9459 61.9634 77.6961 62.3778 78.217 62.8838C78.7484 63.3789 79.0141 64.0571 79.0141 64.9183C79.0141 65.8333 78.665 66.576 77.967 67.1466C77.2689 67.7063 76.2426 67.9862 74.8882 67.9862C74.4089 67.9862 73.9609 67.9431 73.5442 67.857C73.1378 67.7817 72.7784 67.6686 72.4658 67.5179C72.1637 67.3565 71.924 67.1627 71.7469 66.9366C71.5802 66.6998 71.4969 66.4307 71.4969 66.1293C71.4969 65.8171 71.5854 65.5534 71.7625 65.3381C71.9397 65.112 72.1324 64.9398 72.3408 64.8214C72.6325 65.0582 72.9868 65.2627 73.4035 65.435C73.8307 65.6072 74.2943 65.6933 74.7944 65.6933C75.3049 65.6933 75.6644 65.6126 75.8728 65.4511C76.0812 65.2897 76.1853 65.1013 76.1853 64.886C76.1853 64.6707 76.102 64.5092 75.9353 64.4016C75.7686 64.2832 75.5342 64.1701 75.232 64.0625L74.5756 63.8364Z" fill="#F8F5F1"/>
<path d="M88.8877 64.1109C88.8877 64.6922 88.7887 65.2251 88.5908 65.7095C88.4033 66.1831 88.1271 66.5922 87.7625 66.9366C87.3978 67.2704 86.955 67.5287 86.4341 67.7117C85.9131 67.8947 85.3245 67.9862 84.6681 67.9862C84.0117 67.9862 83.423 67.8947 82.9021 67.7117C82.3811 67.5287 81.9383 67.2704 81.5737 66.9366C81.209 66.5922 80.9277 66.1831 80.7298 65.7095C80.5422 65.2251 80.4484 64.6922 80.4484 64.1109V57.9428C80.5631 57.9212 80.7454 57.8943 80.9954 57.862C81.2455 57.819 81.4851 57.7975 81.7143 57.7975C81.954 57.7975 82.1624 57.819 82.3395 57.862C82.527 57.8943 82.6833 57.9589 82.8083 58.0558C82.9333 58.1527 83.0271 58.2872 83.0896 58.4595C83.1521 58.6317 83.1834 58.8578 83.1834 59.1377V64.0625C83.1834 64.5792 83.3188 64.9829 83.5897 65.2735C83.871 65.5642 84.2305 65.7095 84.6681 65.7095C85.1161 65.7095 85.4755 65.5642 85.7464 65.2735C86.0173 64.9829 86.1528 64.5792 86.1528 64.0625V57.9428C86.2674 57.9212 86.4497 57.8943 86.6998 57.862C86.9498 57.819 87.1895 57.7975 87.4187 57.7975C87.6583 57.7975 87.8667 57.819 88.0438 57.862C88.2313 57.8943 88.3876 57.9589 88.5126 58.0558C88.6377 58.1527 88.7314 58.2872 88.794 58.4595C88.8565 58.6317 88.8877 58.8578 88.8877 59.1377V64.1109Z" fill="#F8F5F1"/>
<path d="M93.5616 63.8364C93.1031 63.675 92.6864 63.5135 92.3113 63.352C91.9362 63.1798 91.6132 62.9753 91.3423 62.7384C91.0715 62.5016 90.8579 62.2217 90.7016 61.8988C90.5557 61.5651 90.4828 61.1614 90.4828 60.6878C90.4828 59.7728 90.8214 59.0408 91.4986 58.4918C92.1863 57.9428 93.1448 57.6683 94.3742 57.6683C94.8222 57.6683 95.239 57.7006 95.6245 57.7652C96.01 57.8297 96.3382 57.932 96.6091 58.072C96.8904 58.2011 97.1092 58.3734 97.2655 58.5887C97.4218 58.7932 97.4999 59.0354 97.4999 59.3153C97.4999 59.5952 97.4374 59.8374 97.3124 60.0419C97.1873 60.2357 97.0363 60.4025 96.8591 60.5424C96.6299 60.3917 96.3226 60.2626 95.9371 60.1549C95.5516 60.0365 95.1296 59.9773 94.6712 59.9773C94.2023 59.9773 93.8585 60.0473 93.6397 60.1872C93.4209 60.3164 93.3115 60.4832 93.3115 60.6878C93.3115 60.8492 93.3792 60.9838 93.5147 61.0914C93.6501 61.1883 93.8533 61.2798 94.1242 61.3659L94.9525 61.6404C95.9319 61.9634 96.682 62.3778 97.203 62.8838C97.7343 63.3789 98 64.0571 98 64.9183C98 65.8333 97.651 66.576 96.9529 67.1466C96.2548 67.7063 95.2286 67.9862 93.8741 67.9862C93.3949 67.9862 92.9468 67.9431 92.5301 67.857C92.1238 67.7817 91.7643 67.6686 91.4517 67.5179C91.1496 67.3565 90.91 67.1627 90.7328 66.9366C90.5661 66.6998 90.4828 66.4307 90.4828 66.1293C90.4828 65.8171 90.5714 65.5534 90.7485 65.3381C90.9256 65.112 91.1183 64.9398 91.3267 64.8214C91.6184 65.0582 91.9727 65.2627 92.3894 65.435C92.8166 65.6072 93.2803 65.6933 93.7804 65.6933C94.2909 65.6933 94.6503 65.6126 94.8587 65.4511C95.0671 65.2897 95.1713 65.1013 95.1713 64.886C95.1713 64.6707 95.0879 64.5092 94.9212 64.4016C94.7545 64.2832 94.5201 64.1701 94.218 64.0625L93.5616 63.8364Z" fill="#F8F5F1"/>
</g>
<defs>
<filter id="filter0_d_420_293" x="0" y="0.0185547" width="108" height="88" filterUnits="userSpaceOnUse" color-interpolation-filters="sRGB">
<feFlood flood-opacity="0" result="BackgroundImageFix"/>
<feColorMatrix in="SourceAlpha" type="matrix" values="0 0 0 0 0 0 0 0 0 0 0 0 0 0 0 0 0 0 127 0" result="hardAlpha"/>
<feOffset dy="10"/>
<feGaussianBlur stdDeviation="5"/>
<feComposite in2="hardAlpha" operator="out"/>
<feColorMatrix type="matrix" values="0 0 0 0 0 0 0 0 0 0 0 0 0 0 0 0 0 0 0.05 0"/>
<feBlend mode="normal" in2="BackgroundImageFix" result="effect1_dropShadow_420_293"/>
<feBlend mode="normal" in="SourceGraphic" in2="effect1_dropShadow_420_293" result="shape"/>
</filter>
</defs>
</svg>
