<svg width="234" height="56" viewBox="0 0 234 56" fill="none" xmlns="http://www.w3.org/2000/svg">
<g filter="url(#filter0_d_935_2212)">
<path d="M13.6109 14.9193C12.217 15.978 11.2604 17.3197 10.8576 18.7814C10.4547 20.2431 10.623 21.7616 11.3418 23.1524C12.366 21.7787 13.9188 20.6725 15.7943 19.9804C15.8879 19.2499 16.2571 18.5549 16.8579 17.9781C17.4586 17.4012 18.2659 16.9665 19.1839 16.7256C20.1019 16.4848 21.0921 16.4478 22.0371 16.6191C22.982 16.7905 23.8421 17.1629 24.5153 17.6922C25.1885 18.2215 25.6466 18.8856 25.8351 19.6056C26.0237 20.3256 25.9349 21.0713 25.5793 21.7544C25.2236 22.4374 24.6161 23.0291 23.8286 23.4592C23.0412 23.8893 22.1069 24.1399 21.1367 24.1811C18.4 24.4777 17.5039 25.2628 16.8447 26.2915C16.4753 26.867 16.6343 27.3284 16.9382 27.4685C20.6785 28.6832 25.0421 28.0947 28.0873 25.7842C29.973 24.331 31.0213 22.3735 31.0035 20.3389C30.9856 18.3042 29.9032 16.3574 27.9922 14.9232C26.0812 13.4889 23.4967 12.6836 20.8026 12.6829C18.1084 12.6821 15.5233 13.4861 13.6109 14.9193Z" fill="#F8F5F1"/>
<path d="M27.985 32.7851C29.3986 31.7416 30.3803 30.4104 30.8108 28.9534C31.2413 27.4964 31.102 25.9763 30.41 24.5779C29.3566 25.9405 27.7807 27.0297 25.8905 27.7017C25.7832 28.4314 25.401 29.1227 24.7892 29.6933C24.1775 30.264 23.3618 30.6902 22.439 30.9213C21.5162 31.1524 20.525 31.1787 19.583 30.9972C18.6409 30.8157 17.7876 30.4339 17.1242 29.8971C16.4608 29.3603 16.0152 28.6911 15.8403 27.9688C15.6653 27.2466 15.7684 26.5016 16.1371 25.8222C16.5059 25.1428 17.125 24.5576 17.9209 24.1359C18.7169 23.7143 19.6562 23.4739 20.6276 23.4433C23.3705 23.1761 24.2806 22.4016 24.9601 21.38C25.3403 20.808 25.1907 20.3442 24.8899 20.203C21.1777 18.9495 16.786 19.4897 13.7096 21.7672C12.7417 22.473 11.9682 23.3165 11.4335 24.2489C10.8988 25.1814 10.6136 26.1845 10.5942 27.2006C10.5748 28.2166 10.8217 29.2255 11.3205 30.1692C11.8194 31.113 12.5605 31.9728 13.5011 32.6994C14.4416 33.426 15.5632 34.005 16.8012 34.4029C18.0392 34.8009 19.3691 35.0101 20.7146 35.0183C22.06 35.0266 23.3943 34.8339 24.6407 34.4513C25.8871 34.0686 27.0211 33.5036 27.9772 32.7887L27.985 32.7851Z" fill="#F8F5F1"/>
<path d="M14.052 10.834C13.8478 10.834 11.8701 10.8693 10 10.9305C10 10.9305 14.4431 12.1075 16.1902 12.9514C15.5336 12.2142 14.8196 11.5072 14.052 10.834Z" fill="#F8F5F1"/>
<path d="M10.9691 7.61145C16.3224 11.352 18.7613 15.269 18.7613 15.269C19.9193 14.7358 23.2045 15.0913 23.2045 15.0913C17.8933 9.79714 10.9691 7.61145 10.9691 7.61145Z" fill="#F8F5F1"/>
<path d="M21.7412 12.9385C22.1279 13.2581 22.492 13.5928 22.8321 13.9413C23.4998 13.7548 24.1973 13.636 24.9064 13.5882C24.9064 13.5882 25.8773 10.4915 30.3423 6.45911C30.3407 6.46146 26.4337 7.85739 21.7412 12.9385Z" fill="#F8F5F1"/>
<path d="M17.6179 10.2183C18.959 10.9276 20.2077 11.7315 21.3472 12.6194L22.5239 11.4424C18.3691 4.89356 11.5275 4.24622 11.5275 4.24622C16.0906 7.00981 17.5119 9.98527 17.6179 10.2183Z" fill="#F8F5F1"/>
<path d="M20.5597 8.12927L22.1929 6.31669C22.1929 6.31669 21.9654 4.27577 18.8641 0.0185547C18.8641 0.0185547 18.9685 4.56767 18.2407 6.31669C18.2454 6.31669 19.7945 7.35245 20.5597 8.12927Z" fill="#F8F5F1"/>
<path d="M22.7511 11.1412L24.1973 9.92654C24.1973 9.92654 25.1979 5.8141 28.2275 2.20776C28.2275 2.20776 24.6321 3.27648 20.9932 8.55416C20.9901 8.55062 21.9251 9.47339 22.7511 11.1412Z" fill="#F8F5F1"/>
<path d="M30.419 11.7415C28.3759 11.4072 26.6289 12.0946 26.0756 12.3488C25.8169 12.7808 25.6081 13.1398 25.4974 13.3422C27.4408 12.4277 30.419 11.7415 30.419 11.7415Z" fill="#F8F5F1"/>
<path d="M31.7001 8.37287C30.2087 8.3458 28.4414 9.30859 27.8523 9.65698C27.4082 10.2325 26.9313 10.9517 26.5167 11.6238C28.03 9.94417 31.7001 8.37287 31.7001 8.37287Z" fill="#F8F5F1"/>
<path d="M49.1663 8.13903C49.5286 7.91923 50.072 7.71043 50.7966 7.51262C51.5425 7.31481 52.2884 7.2159 53.0343 7.2159C54.0999 7.2159 55.0376 7.38075 55.8474 7.71043C56.6785 8.01814 57.2113 8.51267 57.4457 9.19402C57.8294 10.3369 58.2449 11.6667 58.6925 13.1832C59.14 14.6998 59.5875 16.2713 60.0351 17.8977C60.4826 19.5022 60.9195 21.0957 61.3457 22.6781C61.7719 24.2387 62.1449 25.6233 62.4646 26.8322C62.2088 27.1399 61.8252 27.3817 61.3137 27.5575C60.8023 27.7553 60.1949 27.8542 59.4916 27.8542C58.9802 27.8542 58.5433 27.8102 58.181 27.7223C57.84 27.6344 57.5523 27.5025 57.3179 27.3267C57.1048 27.1509 56.9236 26.9201 56.7744 26.6344C56.6466 26.3486 56.5294 26.019 56.4228 25.6453L55.8474 23.3705H50.0614C49.8909 24.0299 49.7204 24.7112 49.5499 25.4145C49.3794 26.1179 49.2089 26.7992 49.0384 27.4586C48.7401 27.5685 48.4204 27.6564 48.0794 27.7223C47.7598 27.8102 47.3655 27.8542 46.8966 27.8542C45.8098 27.8542 44.9999 27.6674 44.4672 27.2937C43.9557 26.8981 43.7 26.3596 43.7 25.6783C43.7 25.3706 43.7426 25.0629 43.8278 24.7552C43.9131 24.4475 44.009 24.0848 44.1155 23.6672C44.2647 23.0738 44.4672 22.3375 44.7229 21.4583C44.9999 20.5791 45.2983 19.6341 45.618 18.623C45.9376 17.59 46.2786 16.535 46.6409 15.458C47.0032 14.3811 47.3442 13.37 47.6639 12.4249C47.9835 11.4579 48.2712 10.6007 48.527 9.85339C48.804 9.1061 49.0171 8.53465 49.1663 8.13903ZM53.0023 12.392C52.704 13.3151 52.363 14.3481 51.9794 15.491C51.6171 16.6119 51.2868 17.7548 50.9884 18.9197H54.9523C54.654 17.7329 54.345 16.579 54.0253 15.458C53.7269 14.3151 53.4499 13.2931 53.1941 12.392H53.0023Z" fill="#F8F5F1"/>
<path d="M63.9485 21.3924C63.7993 21.1506 63.6608 20.8319 63.533 20.4363C63.4051 20.0407 63.3412 19.6231 63.3412 19.1835C63.3412 18.3703 63.5223 17.7878 63.8846 17.4361C64.2469 17.0625 64.7157 16.8757 65.2911 16.8757H72.1321C72.2599 17.1175 72.3878 17.4361 72.5157 17.8318C72.6649 18.2274 72.7394 18.645 72.7394 19.0846C72.7394 19.8978 72.5583 20.4912 72.196 20.8649C71.8337 21.2165 71.3649 21.3924 70.7895 21.3924H63.9485Z" fill="#F8F5F1"/>
<path d="M92.0382 11.5678C90.3973 11.5678 89.1399 12.0843 88.2661 13.1173C87.3924 14.1503 86.9555 15.6119 86.9555 17.5021C86.9555 19.4143 87.435 20.8869 88.394 21.9199C89.3743 22.9529 90.685 23.4694 92.326 23.4694C93.1997 23.4694 93.935 23.3485 94.5317 23.1067C95.1497 22.865 95.7358 22.5902 96.2899 22.2825C96.6521 22.5902 96.9292 22.9639 97.121 23.4035C97.3341 23.8211 97.4407 24.3156 97.4407 24.887C97.4407 25.7882 96.9505 26.5574 95.9702 27.1948C95.0112 27.8102 93.5407 28.118 91.5587 28.118C90.1309 28.118 88.7883 27.9092 87.5309 27.4916C86.2735 27.0739 85.176 26.4366 84.2383 25.5794C83.3006 24.7002 82.5547 23.6013 82.0006 22.2825C81.4678 20.9418 81.2014 19.3483 81.2014 17.5021C81.2014 15.7877 81.4572 14.2822 81.9687 12.9854C82.5014 11.6667 83.2154 10.5567 84.1104 9.65558C85.0268 8.75444 86.0924 8.07309 87.3071 7.61153C88.5219 7.14997 89.8219 6.91919 91.2071 6.91919C93.1677 6.91919 94.6809 7.24887 95.7464 7.90824C96.8333 8.56762 97.3767 9.41381 97.3767 10.4468C97.3767 11.0183 97.2382 11.5128 96.9612 11.9304C96.6841 12.348 96.3644 12.6777 96.0022 12.9195C95.4481 12.5458 94.8513 12.2271 94.212 11.9634C93.594 11.6996 92.8694 11.5678 92.0382 11.5678Z" fill="#F8F5F1"/>
<path d="M99.1516 17.5021C99.1516 15.7877 99.4074 14.2712 99.9189 12.9524C100.452 11.6337 101.166 10.5347 102.061 9.65558C102.977 8.75444 104.043 8.07309 105.257 7.61153C106.493 7.14997 107.825 6.91919 109.253 6.91919C110.681 6.91919 112.002 7.14997 113.217 7.61153C114.453 8.07309 115.529 8.75444 116.446 9.65558C117.362 10.5347 118.076 11.6337 118.588 12.9524C119.12 14.2712 119.387 15.7877 119.387 17.5021C119.387 19.2165 119.131 20.744 118.62 22.0847C118.108 23.4035 117.394 24.5134 116.478 25.4145C115.583 26.2937 114.517 26.9641 113.281 27.4256C112.045 27.8872 110.702 28.118 109.253 28.118C107.804 28.118 106.461 27.8872 105.225 27.4256C103.989 26.9421 102.924 26.2497 102.029 25.3486C101.134 24.4475 100.43 23.3375 99.9189 22.0188C99.4074 20.7 99.1516 19.1945 99.1516 17.5021ZM104.906 17.5021C104.906 19.5022 105.3 20.9968 106.088 21.9858C106.877 22.9749 107.932 23.4694 109.253 23.4694C110.596 23.4694 111.661 22.9749 112.45 21.9858C113.238 20.9968 113.633 19.5022 113.633 17.5021C113.633 15.524 113.238 14.0404 112.45 13.0513C111.683 12.0623 110.628 11.5678 109.285 11.5678C107.964 11.5678 106.898 12.0623 106.088 13.0513C105.3 14.0184 104.906 15.502 104.906 17.5021Z" fill="#F8F5F1"/>
<path d="M135.888 22.6122C135.611 22.854 135.249 23.0518 134.801 23.2056C134.375 23.3375 133.874 23.4035 133.299 23.4035C132.531 23.4035 131.892 23.3045 131.381 23.1067C130.89 22.9089 130.571 22.5683 130.422 22.0847C129.825 20.1506 129.335 18.59 128.951 17.4032C128.567 16.1943 128.269 15.1393 128.056 14.2382H127.896C127.832 15.535 127.779 16.7218 127.736 17.7988C127.715 18.8538 127.694 19.8868 127.672 20.8978C127.672 21.9089 127.651 22.9309 127.608 23.9639C127.587 24.9969 127.545 26.1398 127.481 27.3926C127.204 27.5025 126.841 27.5905 126.394 27.6564C125.946 27.7443 125.499 27.7883 125.051 27.7883C124.113 27.7883 123.378 27.6344 122.845 27.3267C122.334 27.019 122.078 26.4585 122.078 25.6453L123.005 8.83136C123.176 8.54564 123.549 8.23793 124.124 7.90824C124.699 7.57856 125.509 7.41372 126.554 7.41372C127.683 7.41372 128.567 7.60054 129.207 7.97418C129.846 8.32585 130.315 8.90829 130.613 9.72151C130.805 10.249 131.008 10.8534 131.221 11.5348C131.455 12.2161 131.679 12.9195 131.892 13.6448C132.126 14.3701 132.35 15.0954 132.563 15.8207C132.776 16.524 132.968 17.1614 133.139 17.7329H133.299C133.81 15.8866 134.322 14.1063 134.833 12.392C135.344 10.6556 135.813 9.20501 136.24 8.04012C136.559 7.86429 136.964 7.72142 137.454 7.61153C137.966 7.47965 138.531 7.41372 139.149 7.41372C140.193 7.41372 141.045 7.57856 141.706 7.90824C142.367 8.21595 142.75 8.66652 142.857 9.25995C142.942 9.69953 143.027 10.3809 143.112 11.304C143.219 12.2051 143.326 13.2272 143.432 14.3701C143.539 15.513 143.645 16.7218 143.752 17.9966C143.858 19.2714 143.954 20.5022 144.04 21.6891C144.146 22.854 144.231 23.931 144.295 24.92C144.359 25.8871 144.402 26.6344 144.423 27.1619C144.061 27.3817 143.677 27.5355 143.272 27.6234C142.889 27.7333 142.388 27.7883 141.77 27.7883C140.96 27.7883 140.278 27.6454 139.724 27.3597C139.17 27.0739 138.872 26.5135 138.829 25.6783C138.701 23.2826 138.616 21.1286 138.573 19.2165C138.552 17.3043 138.509 15.6998 138.445 14.403H138.285C138.072 15.2602 137.763 16.3372 137.358 17.634C136.954 18.9307 136.463 20.5901 135.888 22.6122Z" fill="#F8F5F1"/>
<path d="M146.852 17.5021C146.852 15.7877 147.108 14.2712 147.62 12.9524C148.152 11.6337 148.866 10.5347 149.761 9.65558C150.678 8.75444 151.743 8.07309 152.958 7.61153C154.194 7.14997 155.526 6.91919 156.954 6.91919C158.382 6.91919 159.703 7.14997 160.918 7.61153C162.154 8.07309 163.23 8.75444 164.146 9.65558C165.063 10.5347 165.777 11.6337 166.288 12.9524C166.821 14.2712 167.087 15.7877 167.087 17.5021C167.087 19.2165 166.832 20.744 166.32 22.0847C165.809 23.4035 165.095 24.5134 164.178 25.4145C163.283 26.2937 162.218 26.9641 160.982 27.4256C159.746 27.8872 158.403 28.118 156.954 28.118C155.505 28.118 154.162 27.8872 152.926 27.4256C151.69 26.9421 150.624 26.2497 149.729 25.3486C148.834 24.4475 148.131 23.3375 147.62 22.0188C147.108 20.7 146.852 19.1945 146.852 17.5021ZM152.606 17.5021C152.606 19.5022 153.001 20.9968 153.789 21.9858C154.578 22.9749 155.633 23.4694 156.954 23.4694C158.297 23.4694 159.362 22.9749 160.151 21.9858C160.939 20.9968 161.333 19.5022 161.333 17.5021C161.333 15.524 160.939 14.0404 160.151 13.0513C159.383 12.0623 158.328 11.5678 156.986 11.5678C155.665 11.5678 154.599 12.0623 153.789 13.0513C153.001 14.0184 152.606 15.502 152.606 17.5021Z" fill="#F8F5F1"/>
<path d="M175.786 19.5791C174.849 19.2494 173.996 18.9197 173.229 18.59C172.462 18.2384 171.801 17.8208 171.247 17.3372C170.693 16.8537 170.256 16.2823 169.937 15.6229C169.638 14.9415 169.489 14.1173 169.489 13.1502C169.489 11.282 170.182 9.78745 171.567 8.66652C172.973 7.54559 174.934 6.98513 177.449 6.98513C178.365 6.98513 179.218 7.05106 180.006 7.18294C180.795 7.31481 181.466 7.52361 182.02 7.80934C182.595 8.07309 183.043 8.42475 183.363 8.86433C183.682 9.28193 183.842 9.77646 183.842 10.3479C183.842 10.9194 183.714 11.4139 183.459 11.8315C183.203 12.2271 182.894 12.5678 182.531 12.8535C182.063 12.5458 181.434 12.2821 180.645 12.0623C179.857 11.8205 178.994 11.6996 178.056 11.6996C177.097 11.6996 176.394 11.8425 175.946 12.1282C175.499 12.392 175.275 12.7326 175.275 13.1502C175.275 13.4799 175.413 13.7547 175.691 13.9745C175.968 14.1723 176.383 14.3591 176.937 14.5349L178.632 15.0954C180.635 15.7548 182.169 16.6009 183.235 17.634C184.322 18.645 184.865 20.0297 184.865 21.788C184.865 23.6562 184.151 25.1728 182.723 26.3377C181.295 27.4806 179.196 28.052 176.426 28.052C175.445 28.052 174.529 27.9641 173.677 27.7883C172.845 27.6344 172.11 27.4036 171.471 27.0959C170.853 26.7662 170.363 26.3706 170 25.9091C169.659 25.4255 169.489 24.876 169.489 24.2606C169.489 23.6232 169.67 23.0848 170.032 22.6452C170.395 22.1836 170.789 21.832 171.215 21.5902C171.812 22.0737 172.536 22.4913 173.389 22.843C174.263 23.1947 175.211 23.3705 176.234 23.3705C177.278 23.3705 178.013 23.2056 178.44 22.876C178.866 22.5463 179.079 22.1616 179.079 21.7221C179.079 21.2825 178.909 20.9528 178.568 20.733C178.227 20.4912 177.747 20.2605 177.129 20.0407L175.786 19.5791Z" fill="#F8F5F1"/>
<path d="M205.061 20.1396C205.061 21.3264 204.859 22.4144 204.454 23.4035C204.07 24.3705 203.505 25.2057 202.76 25.9091C202.014 26.5904 201.108 27.1179 200.042 27.4916C198.977 27.8652 197.773 28.052 196.43 28.052C195.088 28.052 193.883 27.8652 192.818 27.4916C191.752 27.1179 190.847 26.5904 190.101 25.9091C189.355 25.2057 188.779 24.3705 188.374 23.4035C187.991 22.4144 187.799 21.3264 187.799 20.1396V7.54559C188.033 7.50163 188.406 7.44669 188.918 7.38075C189.429 7.29283 189.92 7.24887 190.388 7.24887C190.879 7.24887 191.305 7.29283 191.667 7.38075C192.051 7.44669 192.37 7.57856 192.626 7.77637C192.882 7.97418 193.074 8.24892 193.201 8.60058C193.329 8.95225 193.393 9.41381 193.393 9.98526V20.0407C193.393 21.0957 193.67 21.9199 194.224 22.5133C194.8 23.1067 195.535 23.4035 196.43 23.4035C197.347 23.4035 198.082 23.1067 198.636 22.5133C199.19 21.9199 199.467 21.0957 199.467 20.0407V7.54559C199.701 7.50163 200.074 7.44669 200.586 7.38075C201.097 7.29283 201.587 7.24887 202.056 7.24887C202.546 7.24887 202.973 7.29283 203.335 7.38075C203.719 7.44669 204.038 7.57856 204.294 7.77637C204.55 7.97418 204.742 8.24892 204.869 8.60058C204.997 8.95225 205.061 9.41381 205.061 9.98526V20.1396Z" fill="#F8F5F1"/>
<path d="M214.621 19.5791C213.684 19.2494 212.831 18.9197 212.064 18.59C211.297 18.2384 210.636 17.8208 210.082 17.3372C209.528 16.8537 209.091 16.2823 208.771 15.6229C208.473 14.9415 208.324 14.1173 208.324 13.1502C208.324 11.282 209.016 9.78745 210.402 8.66652C211.808 7.54559 213.769 6.98513 216.284 6.98513C217.2 6.98513 218.052 7.05106 218.841 7.18294C219.629 7.31481 220.301 7.52361 220.855 7.80934C221.43 8.07309 221.878 8.42475 222.197 8.86433C222.517 9.28193 222.677 9.77646 222.677 10.3479C222.677 10.9194 222.549 11.4139 222.293 11.8315C222.038 12.2271 221.729 12.5678 221.366 12.8535C220.898 12.5458 220.269 12.2821 219.48 12.0623C218.692 11.8205 217.829 11.6996 216.891 11.6996C215.932 11.6996 215.229 11.8425 214.781 12.1282C214.334 12.392 214.11 12.7326 214.11 13.1502C214.11 13.4799 214.248 13.7547 214.525 13.9745C214.802 14.1723 215.218 14.3591 215.772 14.5349L217.466 15.0954C219.47 15.7548 221.004 16.6009 222.07 17.634C223.157 18.645 223.7 20.0297 223.7 21.788C223.7 23.6562 222.986 25.1728 221.558 26.3377C220.13 27.4806 218.031 28.052 215.261 28.052C214.28 28.052 213.364 27.9641 212.511 27.7883C211.68 27.6344 210.945 27.4036 210.306 27.0959C209.688 26.7662 209.198 26.3706 208.835 25.9091C208.494 25.4255 208.324 24.876 208.324 24.2606C208.324 23.6232 208.505 23.0848 208.867 22.6452C209.23 22.1836 209.624 21.832 210.05 21.5902C210.647 22.0737 211.371 22.4913 212.224 22.843C213.098 23.1947 214.046 23.3705 215.069 23.3705C216.113 23.3705 216.848 23.2056 217.275 22.876C217.701 22.5463 217.914 22.1616 217.914 21.7221C217.914 21.2825 217.743 20.9528 217.402 20.733C217.061 20.4912 216.582 20.2605 215.964 20.0407L214.621 19.5791Z" fill="#F8F5F1"/>
</g>
<defs>
<filter id="filter0_d_935_2212" x="0" y="0.0185547" width="233.7" height="55" filterUnits="userSpaceOnUse" color-interpolation-filters="sRGB">
<feFlood flood-opacity="0" result="BackgroundImageFix"/>
<feColorMatrix in="SourceAlpha" type="matrix" values="0 0 0 0 0 0 0 0 0 0 0 0 0 0 0 0 0 0 127 0" result="hardAlpha"/>
<feOffset dy="10"/>
<feGaussianBlur stdDeviation="5"/>
<feComposite in2="hardAlpha" operator="out"/>
<feColorMatrix type="matrix" values="0 0 0 0 0 0 0 0 0 0 0 0 0 0 0 0 0 0 0.05 0"/>
<feBlend mode="normal" in2="BackgroundImageFix" result="effect1_dropShadow_935_2212"/>
<feBlend mode="normal" in="SourceGraphic" in2="effect1_dropShadow_935_2212" result="shape"/>
</filter>
</defs>
</svg>
